<?xml version="1.0" standalone="no"?>
<!DOCTYPE svg PUBLIC "-//W3C//DTD SVG 20010904//EN"
 "http://www.w3.org/TR/2001/REC-SVG-20010904/DTD/svg10.dtd">
<svg version="1.0" xmlns="http://www.w3.org/2000/svg"
 width="845.000000pt" height="845.000000pt" viewBox="0 0 845.000000 845.000000"
 preserveAspectRatio="xMidYMid meet">
<metadata>
Created by potrace 1.11, written by Peter Selinger 2001-2013
</metadata>
<g transform="translate(0.000000,845.000000) scale(0.100000,-0.100000)"
fill="#000000" stroke="none">
<path d="M0 4225 l0 -4225 4225 0 4225 0 0 4225 0 4225 -4225 0 -4225 0 0
-4225z m2735 784 c296 -36 513 -191 609 -433 50 -125 60 -194 60 -401 0 -236
-19 -339 -89 -481 -77 -155 -215 -271 -384 -324 -132 -42 -228 -50 -572 -50
-315 0 -327 1 -353 21 -32 25 -33 59 -3 87 20 19 36 22 152 24 l130 3 3 718 2
717 -128 0 c-143 0 -172 10 -172 58 0 32 8 45 35 60 27 15 588 16 710 1z
m2720 -14 c30 -29 31 -45 4 -79 -20 -25 -24 -26 -121 -26 l-100 0 6 -27 c3
-16 47 -295 98 -620 50 -326 95 -590 99 -585 3 4 59 203 123 442 64 239 121
445 126 457 23 57 99 65 124 14 7 -14 64 -227 127 -473 63 -247 116 -448 120
-448 4 0 170 1198 169 1228 0 9 -24 12 -88 12 -75 0 -92 3 -110 20 -22 21 -28
55 -14 76 19 29 55 34 267 34 248 0 274 -6 275 -67 0 -41 -37 -63 -107 -63
-57 0 -63 -2 -68 -22 -7 -30 -235 -1503 -235 -1517 0 -23 -41 -51 -73 -51 -65
0 -68 7 -200 523 -68 262 -125 478 -127 481 -3 2 -59 -190 -124 -427 -152
-552 -153 -555 -176 -567 -32 -17 -75 -12 -97 13 -19 19 -38 126 -145 795
l-123 772 -77 0 c-71 0 -78 2 -97 26 -27 34 -26 50 4 79 l24 25 246 0 246 0
24 -25z m-783 -487 c194 -160 354 -292 355 -293 2 -1 -157 -131 -353 -288
-253 -204 -363 -287 -380 -287 -65 0 -84 48 -36 92 15 14 157 128 316 253
l288 228 -23 18 c-13 10 -154 125 -314 256 -293 241 -314 263 -285 299 7 7 27
14 46 14 29 0 79 -38 386 -292z m-475 -240 c31 -29 30 -71 -3 -97 -25 -20 -39
-21 -289 -21 -250 0 -264 1 -289 21 -32 25 -34 64 -4 96 21 23 22 23 292 23
263 0 270 -1 293 -22z"/>
<path d="M2440 4170 l0 -723 148 6 c253 10 378 52 493 166 99 98 140 192 164
371 64 468 -95 788 -434 875 -37 9 -127 19 -217 22 l-154 6 0 -723z"/>
</g>
</svg>
